<?xml version="1.0" encoding="utf-8"?>
<!-- Generator: Adobe Illustrator 27.9.0, SVG Export Plug-In . SVG Version: 6.00 Build 0)  -->
<svg version="1.1" id="레이어_1" xmlns="http://www.w3.org/2000/svg" xmlns:xlink="http://www.w3.org/1999/xlink" x="0px"
	 y="0px" viewBox="0 0 250 250" style="enable-background:new 0 0 250 250;" xml:space="preserve">
<style type="text/css">
	.st0{fill:url(#SVGID_1_);}
	.st1{fill:url(#SVGID_00000036251261182346147360000000404759214431830445_);}
	.st2{fill:url(#SVGID_00000135662678325950037140000016503008794401254076_);}
	.st3{fill:#898989;}
</style>
<g>
	<linearGradient id="SVGID_1_" gradientUnits="userSpaceOnUse" x1="58.9199" y1="37.0039" x2="94.0076" y2="46.268">
		<stop  offset="0" style="stop-color:#FBB03B"/>
		<stop  offset="1" style="stop-color:#ED1E79"/>
	</linearGradient>
	<path class="st0" d="M75.9,59.6c10,0,18.1-8.1,18.1-18.1c0-10-8.1-18.1-18.1-18.1c-10,0-18.1,8.1-18.1,18.1
		C57.7,51.5,65.9,59.6,75.9,59.6z M75.9,40.7c0.4,0,0.8,0.4,0.8,0.8c0,0.4-0.4,0.8-0.8,0.8c-0.4,0-0.8-0.4-0.8-0.8
		C75.1,41,75.4,40.7,75.9,40.7z"/>
	
		<linearGradient id="SVGID_00000071542328364586316510000013310152716289589909_" gradientUnits="userSpaceOnUse" x1="149.6193" y1="41.4819" x2="194.5831" y2="41.4819">
		<stop  offset="0" style="stop-color:#FBB03B"/>
		<stop  offset="1" style="stop-color:#ED1E79"/>
	</linearGradient>
	<path style="fill:url(#SVGID_00000071542328364586316510000013310152716289589909_);" d="M157.1,49h7.5v7.5c0,4.1,3.4,7.5,7.5,7.5
		c4.1,0,7.5-3.4,7.5-7.5V49h7.5c4.1,0,7.5-3.4,7.5-7.5s-3.4-7.5-7.5-7.5h-7.5v-7.5c0-4.1-3.4-7.5-7.5-7.5c-4.1,0-7.5,3.4-7.5,7.5V34
		h-7.5c-4.1,0-7.5,3.4-7.5,7.5S153,49,157.1,49z"/>
	
		<linearGradient id="SVGID_00000123436488291438468710000009968317828247762076_" gradientUnits="userSpaceOnUse" x1="6.7086" y1="101.1823" x2="246.5122" y2="172.2409">
		<stop  offset="0" style="stop-color:#FBB03B"/>
		<stop  offset="1" style="stop-color:#ED1E79"/>
	</linearGradient>
	<path style="fill:url(#SVGID_00000123436488291438468710000009968317828247762076_);" d="M169.9,72c-15.1,0-29.9,5.9-42.6,14.5
		C113.9,77.3,97.5,72,80.8,72c-44.6,0-80.5,54.4-80.5,99.5c0,5.8,4.7,10.4,10.4,10.4s10.4-4.7,10.4-10.4c0-34.7,28.1-78.6,59.7-78.6
		c10.3,0,20.7,2.8,29.6,7.8c-2.6,2.7-5.1,5.4-7.3,8.2c-6.8,7.4-11,18.2-11,30.5c0,22.8,14.6,40.7,33.2,40.7
		c18.6,0,33.2-17.9,33.2-40.7c0-9.7-1.6-18.4-6.1-25.4c-1.8-3.8-5.1-7.5-7.8-11c-0.5-0.6-1-1.2-1.5-1.8c8.2-4.9,17.4-8.2,26.7-8.2
		c31.6,0,59.7,44,59.7,78.6c0,5.8,4.7,10.4,10.4,10.4s10.4-4.7,10.4-10.4C250.4,126.4,214.5,72,169.9,72z M134.9,151.5
		c-2.3,4.8-6.1,7.6-9.5,7.6c-5.8,0-12.3-8.2-12.3-19.9c0-5.2,1.3-9.7,3.2-13.1c0,0,0,0,0,0c0.7-1.1,1.6-2.2,2.5-3.4
		c2-2.2,4.4-3.4,6.6-3.4c2.8,0,5.8,1.9,8.1,5.2C139,133,137,147,134.9,151.5z"/>
	<path class="st3" d="M28.2,195.1c-2.4,0-4.5,1.3-4.5,4.3v18c0,4-1.9,5.5-4.3,5.5c-1.9,0-2.4-0.4-3.6-1c-0.6-0.4-1.1-0.9-1.9-1.1
		c-1.3-0.3-2.9-0.3-4.2,0.7c-1.7,1.2-1.7,3.7-0.6,5.3c2.2,3.1,6.8,4.2,10.5,4.2c7.1,0,13-3.7,13-13.2v-18.3
		C32.7,196.5,30.6,195.1,28.2,195.1z"/>
	<path class="st3" d="M71.1,195.1c-2.3,0-4.5,1.5-4.5,4.4v9.1h-11v-9.1c0-2.9-2.1-4.4-4.5-4.4c-2.3,0-4.5,1.5-4.5,4.4v30.6h8.9v-14
		h11v14h8.9v-30.6C75.5,196.6,73.4,195.1,71.1,195.1z"/>
	<path class="st3" d="M104,195.3h-7.5c-5.2,0-6.8,1.9-6.8,6.8v28h8.9v-10.3h5.4c7.5,0,13-3.7,13-11.9v-0.7
		C117,199,111.5,195.3,104,195.3z M108.2,207.7c0,2.4-1.6,4.6-4.6,4.6h-4.9v-8.2c0-1,0.3-1.3,1.3-1.3h3.7c2.9,0,4.6,2.2,4.6,4.6
		V207.7z"/>
	<path class="st3" d="M150.1,222.6h-9.6c-1,0-1.3-0.2-1.3-1.3v-21.8c0-2.9-2.2-4.4-4.5-4.4c-2.3,0-4.5,1.5-4.5,4.4v23.8
		c0,5,1.6,6.8,6.8,6.8h13.1c2.5,0,3.5-2.1,3.5-3.9S152.7,222.6,150.1,222.6z"/>
	<path class="st3" d="M189.2,195.1c-2.4,0-4.5,1.3-4.5,4.3v19.1c0,3.3-2.7,4.9-5,4.9c-2.3,0-5-1.6-5-4.9v-19.1c0-2.9-2-4.3-4.5-4.3
		c-2.4,0-4.5,1.3-4.5,4.3v18.8c0,9.7,7.7,12.7,14,12.7s14-3.1,14-12.7v-18.8C193.7,196.5,191.6,195.1,189.2,195.1z"/>
	<path class="st3" d="M223.8,210l-2.1-0.7c-3.5-1.2-5.5-2.2-5.4-3.8c0-1.8,1.3-2.6,3.4-2.6c2.6,0,4.1,0.6,5.2,1.3
		c0.4,0.3,1.3,0.6,2,0.6c1.6,0,3.2-0.7,3.7-2.5c0.7-2.1-0.7-4.2-2.7-5.3c-1.6-0.9-3.7-1.7-8.2-1.7c-5.9,0-10.2,2.7-11.7,7.3
		c-1.5,4.6,0,10.5,6.5,13.2c0.5,0.2,1.4,0.6,2.1,0.8c3.6,1.1,6.5,2.4,6.4,4c0,1.9-1.5,2.7-3.9,2.7c-2.9,0-4.3-0.5-5.3-1.1
		c-0.8-0.4-1.6-1.1-3.1-1.1c-1.2,0-2.4,0.6-3.1,1.6c-1.3,2-0.5,4.3,1.1,5.7c2.3,1.9,6.2,2.6,10.1,2.6c7.9,0,12.7-3.6,13.1-9.8
		C232.2,215.6,228.8,211.8,223.8,210z"/>
</g>
</svg>
